<svg width="35" height="17" viewBox="0 0 35 17" fill="none" xmlns="http://www.w3.org/2000/svg">
<path d="M33.4141 9.18187H1.65305C1.3111 9.18187 1.03357 8.87642 1.03357 8.50006C1.03357 8.12369 1.3111 7.81824 1.65305 7.81824H33.4141C33.756 7.81824 34.0336 8.12369 34.0336 8.50006C34.0336 8.87642 33.756 9.18187 33.4141 9.18187Z" fill="#DADADA"/>
<path d="M8.87947 16C8.80211 16 8.72475 15.9718 8.66552 15.916L1.08824 8.70203C1.03203 8.64794 1 8.57487 1 8.49835C1 8.42182 1.03203 8.34875 1.08824 8.29467L8.66612 1.08415C8.78398 0.971951 8.97557 0.971951 9.09343 1.08415C9.21128 1.19634 9.21128 1.37874 9.09343 1.49093L1.7295 8.49835L9.09343 15.5086C9.21128 15.6208 9.21128 15.8032 9.09343 15.9154C9.0342 15.9718 8.95683 16 8.87947 16Z" stroke="#DADADA" stroke-width="0.681818"/>
</svg>
