<svg width="25" height="25" viewBox="0 0 25 25" fill="none" xmlns="http://www.w3.org/2000/svg">
<path d="M23.5352 4.6875H1.46484C0.657129 4.6875 0 5.34463 0 6.15234V18.8477C0 19.6554 0.657129 20.3125 1.46484 20.3125H23.5352C24.3429 20.3125 25 19.6554 25 18.8477V6.15234C25 5.34463 24.3429 4.6875 23.5352 4.6875ZM24.0234 18.8477C24.0234 19.1169 23.8044 19.3359 23.5352 19.3359H1.46484C1.19561 19.3359 0.976562 19.1169 0.976562 18.8477V11.5234H24.0234V18.8477ZM24.0234 10.5469H0.976562V8.59375H24.0234V10.5469ZM24.0234 7.61719H0.976562V6.15234C0.976562 5.88311 1.19561 5.66406 1.46484 5.66406H23.5352C23.8044 5.66406 24.0234 5.88311 24.0234 6.15234V7.61719Z" fill="#828282"/>
<path d="M3.41797 17.3828H12.5C12.7696 17.3828 12.9883 17.1642 12.9883 16.8945C12.9883 16.6249 12.7696 16.4062 12.5 16.4062H3.41797C3.14834 16.4062 2.92969 16.6249 2.92969 16.8945C2.92969 17.1642 3.14834 17.3828 3.41797 17.3828Z" fill="#828282"/>
<path d="M3.41797 14.4531H9.57031C9.83994 14.4531 10.0586 14.2345 10.0586 13.9648C10.0586 13.6952 9.83994 13.4766 9.57031 13.4766H3.41797C3.14834 13.4766 2.92969 13.6952 2.92969 13.9648C2.92969 14.2345 3.14834 14.4531 3.41797 14.4531Z" fill="#828282"/>
<path d="M19.8242 17.3828C18.7473 17.3828 17.8711 16.5066 17.8711 15.4297C17.8711 14.3527 18.7473 13.4766 19.8242 13.4766C20.9012 13.4766 21.7773 14.3527 21.7773 15.4297C21.7773 16.5066 20.9012 17.3828 19.8242 17.3828Z" fill="#828282"/>
</svg>
