<svg width="25" height="25" viewBox="0 0 25 25" fill="none" xmlns="http://www.w3.org/2000/svg">
<g clip-path="url(#clip0_231_578)">
<path d="M25 4.16675H0V20.833H25V4.16675Z" fill="#F0F0F0"/>
<path d="M14.0625 4.1665H10.9375V10.9378H0V14.063H10.9375V20.8343H14.0625V14.063H25V10.9378H14.0625V4.1665Z" fill="#D80027"/>
<path d="M19.2278 15.3984L25 18.6053V15.3984H19.2278Z" fill="#0052B4"/>
<path d="M15.2174 15.3984L25 20.8332V19.2964L17.9838 15.3984H15.2174Z" fill="#0052B4"/>
<path d="M22.3943 20.8332L15.2174 16.8457V20.8332H22.3943Z" fill="#0052B4"/>
<path d="M15.2174 15.3984L25 20.8332V19.2964L17.9838 15.3984H15.2174Z" fill="#F0F0F0"/>
<path d="M15.2174 15.3984L25 20.8332V19.2964L17.9838 15.3984H15.2174Z" fill="#D80027"/>
<path d="M4.41118 15.3982L0 17.8489V15.3982H4.41118Z" fill="#0052B4"/>
<path d="M9.78281 16.0894V20.8331H1.24487L9.78281 16.0894Z" fill="#0052B4"/>
<path d="M7.01626 15.3984L0 19.2964V20.8332L9.78262 15.3984H7.01626Z" fill="#D80027"/>
<path d="M5.77222 9.60137L0 6.39453V9.60137H5.77222Z" fill="#0052B4"/>
<path d="M9.78262 9.60127L0 4.1665V5.70332L7.01626 9.60127H9.78262Z" fill="#0052B4"/>
<path d="M2.60571 4.1665L9.78288 8.15401V4.1665H2.60571Z" fill="#0052B4"/>
<path d="M9.78262 9.60127L0 4.1665V5.70332L7.01626 9.60127H9.78262Z" fill="#F0F0F0"/>
<path d="M9.78262 9.60127L0 4.1665V5.70332L7.01626 9.60127H9.78262Z" fill="#D80027"/>
<path d="M20.5889 9.60132L25 7.15063V9.60132H20.5889Z" fill="#0052B4"/>
<path d="M15.2174 8.91021V4.1665H23.7553L15.2174 8.91021Z" fill="#0052B4"/>
<path d="M17.9838 9.60127L25 5.70332V4.1665L15.2174 9.60127H17.9838Z" fill="#D80027"/>
</g>
<defs>
<clipPath id="clip0_231_578">
<rect width="25" height="25" fill="white"/>
</clipPath>
</defs>
</svg>
